<!DOCTYPE svg PUBLIC "-//W3C//DTD SVG 1.1//EN" "http://www.w3.org/Graphics/SVG/1.1/DTD/svg11.dtd">

<svg width="800px" height="800px" viewBox="0 0 1024 1024" class="icon" version="1.1" xmlns="http://www.w3.org/2000/svg"
     fill="#000000">

    <g id="SVGRepo_bgCarrier" stroke-width="0"/>

    <g id="SVGRepo_tracerCarrier" stroke-linecap="round" stroke-linejoin="round"/>

    <g id="SVGRepo_iconCarrier">

        <path d="M510.211272 591.641896m-167.65815 0a167.65815 167.65815 0 1 0 335.316301 0 167.65815 167.65815 0 1 0-335.316301 0Z"
              fill="#00ccb0"/>

        <path d="M767.286352 368.098037m-33.531221 0a33.531221 33.531221 0 1 0 67.062441 0 33.531221 33.531221 0 1 0-67.062441 0Z"
              fill="#00ccb0"/>

        <path d="M890.235526 289.85784h-13.299247a67.064489 67.064489 0 0 1-51.519862-24.130929l-71.553202-85.865072a67.063465 67.063465 0 0 0-51.519861-24.129905H318.080215a67.064489 67.064489 0 0 0-51.520886 24.131953l-71.548082 85.862a67.065513 67.065513 0 0 1-51.520886 24.131953h-13.303342c-37.038028 0-67.063465 30.025437-67.063465 67.063465V804.009023c0 37.038028 30.025437 67.063465 67.063465 67.063465h760.048507c37.038028 0 67.063465-30.025437 67.063465-67.063465V356.921305c-0.001024-37.038028-30.025437-67.063465-67.063465-67.063465z m22.354488 514.151183c0 12.325532-10.027933 22.354488-22.354488 22.354488H130.185995c-12.325532 0-22.354488-10.027933-22.354488-22.354488V356.921305c0-12.325532 10.027933-22.354488 22.354488-22.354488h13.303342c33.271154 0 64.56928-14.658966 85.867119-40.220264l71.549107-85.863023a22.296127 22.296127 0 0 1 17.173628-8.043643h384.263139a22.296127 22.296127 0 0 1 17.173628 8.043643l71.553202 85.866095c21.299886 25.558225 52.595965 40.217192 85.866095 40.217192h13.299247c12.325532 0 22.354488 10.027933 22.354488 22.354488V804.009023z"
              fill="#000"/>

        <path d="M689.046155 289.85784H353.729854c-12.344985 0-22.354488 10.009503-22.354488 22.354488s10.009503 22.354488 22.354488 22.354489h335.315277c12.344985 0 22.354488-10.009503 22.354488-22.354489s-10.008479-22.354488-22.353464-22.354488z"
              fill="#000"/>

    </g>

</svg>